HIERARCHY
ROOT mixamorig:Hips
{
	OFFSET 0.000000 201.639420 0.000000
	CHANNELS 6 Xposition Yposition Zposition Xrotation Yrotation Zrotation
	JOINT mixamorig:Spine
	{
		OFFSET 0.006200 19.524994 -2.481800
		CHANNELS 3 Xrotation Yrotation Zrotation
		JOINT mixamorig:Spine1
		{
			OFFSET -0.000900 22.835007 -2.825400
			CHANNELS 3 Xrotation Yrotation Zrotation
			JOINT mixamorig:Spine2
			{
				OFFSET -0.020600 26.552490 -3.193300
				CHANNELS 3 Xrotation Yrotation Zrotation
				JOINT mixamorig:Neck
				{
					OFFSET -0.060000 30.701813 1.352200
					CHANNELS 3 Xrotation Yrotation Zrotation
					JOINT mixamorig:Head
					{
						OFFSET -0.087200 22.547607 3.670900
						CHANNELS 3 Xrotation Yrotation Zrotation
						JOINT mixamorig:HeadTop_End
						{
							OFFSET -0.830600 40.355194 7.893500
							CHANNELS 3 Xrotation Yrotation Zrotation
							End Site
							{
								OFFSET 0.000000 30.592346 0.000000
							}
						}
						JOINT mixamorig:RightEye
						{
							OFFSET -6.302100 18.118591 16.197100
							CHANNELS 3 Xrotation Yrotation Zrotation
							End Site
							{
								OFFSET 0.000000 30.592346 0.000000
							}
						}
						JOINT mixamorig:LeftEye
						{
							OFFSET 6.741500 18.382690 16.401899
							CHANNELS 3 Xrotation Yrotation Zrotation
							End Site
							{
								OFFSET 0.000000 30.592346 0.000000
							}
						}
					}
				}
				JOINT mixamorig:LeftShoulder
				{
					OFFSET 11.924900 18.230499 1.425400
					CHANNELS 3 Xrotation Yrotation Zrotation
					JOINT mixamorig:LeftArm
					{
						OFFSET 25.435989 -0.697632 -5.229300
						CHANNELS 3 Xrotation Yrotation Zrotation
						JOINT mixamorig:LeftForeArm
						{
							OFFSET 54.684776 0.000000 0.000000
							CHANNELS 3 Xrotation Yrotation Zrotation
							JOINT mixamorig:LeftHand
							{
								OFFSET 55.098175 0.000000 0.000000
								CHANNELS 3 Xrotation Yrotation Zrotation
								JOINT mixamorig:LeftHandMiddle1
								{
									OFFSET 23.369751 0.000000 0.000000
									CHANNELS 3 Xrotation Yrotation Zrotation
									JOINT mixamorig:LeftHandMiddle2
									{
										OFFSET 6.378677 0.000000 0.000000
										CHANNELS 3 Xrotation Yrotation Zrotation
										JOINT mixamorig:LeftHandMiddle3
										{
											OFFSET 6.148331 0.000000 0.000000
											CHANNELS 3 Xrotation Yrotation Zrotation
											JOINT mixamorig:LeftHandMiddle4
											{
												OFFSET 6.582504 0.000000 0.000000
												CHANNELS 3 Xrotation Yrotation Zrotation
												End Site
												{
													OFFSET -1.168900 6.395691 1.028606
												}
											}
										}
									}
								}
								JOINT mixamorig:LeftHandThumb1
								{
									OFFSET 7.235672 -3.848206 5.434273
									CHANNELS 3 Xrotation Yrotation Zrotation
									JOINT mixamorig:LeftHandThumb2
									{
										OFFSET 6.568451 -3.792297 3.792300
										CHANNELS 3 Xrotation Yrotation Zrotation
										JOINT mixamorig:LeftHandThumb3
										{
											OFFSET 6.063080 -3.500519 3.500518
											CHANNELS 3 Xrotation Yrotation Zrotation
											JOINT mixamorig:LeftHandThumb4
											{
												OFFSET 4.793182 -2.767334 2.767349
												CHANNELS 3 Xrotation Yrotation Zrotation
												End Site
												{
													OFFSET 0.101639 6.054260 1.275483
												}
											}
										}
									}
								}
								JOINT mixamorig:LeftHandIndex1
								{
									OFFSET 23.101074 -0.309540 4.992809
									CHANNELS 3 Xrotation Yrotation Zrotation
									JOINT mixamorig:LeftHandIndex2
									{
										OFFSET 6.226883 0.000000 0.000000
										CHANNELS 3 Xrotation Yrotation Zrotation
										JOINT mixamorig:LeftHandIndex3
										{
											OFFSET 6.094330 0.000000 0.000000
											CHANNELS 3 Xrotation Yrotation Zrotation
											JOINT mixamorig:LeftHandIndex4
											{
												OFFSET 5.482605 0.000000 0.000000
												CHANNELS 3 Xrotation Yrotation Zrotation
												End Site
												{
													OFFSET -1.427902 5.233032 0.797164
												}
											}
										}
									}
								}
								JOINT mixamorig:LeftHandRing1
								{
									OFFSET 22.299240 0.021149 -3.964172
									CHANNELS 3 Xrotation Yrotation Zrotation
									JOINT mixamorig:LeftHandRing2
									{
										OFFSET 6.321869 0.000000 0.000000
										CHANNELS 3 Xrotation Yrotation Zrotation
										JOINT mixamorig:LeftHandRing3
										{
											OFFSET 5.899796 0.000000 0.000000
											CHANNELS 3 Xrotation Yrotation Zrotation
											JOINT mixamorig:LeftHandRing4
											{
												OFFSET 6.517899 0.000000 0.000000
												CHANNELS 3 Xrotation Yrotation Zrotation
												End Site
												{
													OFFSET -1.637299 6.232208 0.980890
												}
											}
										}
									}
								}
								JOINT mixamorig:LeftHandPinky1
								{
									OFFSET 20.463791 -0.302338 -8.562233
									CHANNELS 3 Xrotation Yrotation Zrotation
									JOINT mixamorig:LeftHandPinky2
									{
										OFFSET 6.908646 0.000000 0.000000
										CHANNELS 3 Xrotation Yrotation Zrotation
										JOINT mixamorig:LeftHandPinky3
										{
											OFFSET 4.622849 0.000000 0.000000
											CHANNELS 3 Xrotation Yrotation Zrotation
											JOINT mixamorig:LeftHandPinky4
											{
												OFFSET 5.216080 0.000000 0.000000
												CHANNELS 3 Xrotation Yrotation Zrotation
												End Site
												{
													OFFSET -0.606308 5.116241 0.814926
												}
											}
										}
									}
								}
							}
						}
					}
				}
				JOINT mixamorig:RightShoulder
				{
					OFFSET -12.001300 18.284088 1.348900
					CHANNELS 3 Xrotation Yrotation Zrotation
					JOINT mixamorig:RightArm
					{
						OFFSET -25.308500 -0.751312 -5.164599
						CHANNELS 3 Xrotation Yrotation Zrotation
						JOINT mixamorig:RightForeArm
						{
							OFFSET -54.684429 0.000000 0.000000
							CHANNELS 3 Xrotation Yrotation Zrotation
							JOINT mixamorig:RightHand
							{
								OFFSET -55.150291 0.000000 0.000000
								CHANNELS 3 Xrotation Yrotation Zrotation
								JOINT mixamorig:RightHandMiddle1
								{
									OFFSET -23.317566 0.000000 0.000000
									CHANNELS 3 Xrotation Yrotation Zrotation
									JOINT mixamorig:RightHandMiddle2
									{
										OFFSET -6.378403 0.000000 0.000000
										CHANNELS 3 Xrotation Yrotation Zrotation
										JOINT mixamorig:RightHandMiddle3
										{
											OFFSET -6.148193 0.000000 0.000000
											CHANNELS 3 Xrotation Yrotation Zrotation
											JOINT mixamorig:RightHandMiddle4
											{
												OFFSET -6.583389 0.000000 0.000000
												CHANNELS 3 Xrotation Yrotation Zrotation
												End Site
												{
													OFFSET 1.171692 6.395905 1.029786
												}
											}
										}
									}
								}
								JOINT mixamorig:RightHandThumb1
								{
									OFFSET -7.190521 -3.860474 5.435846
									CHANNELS 3 Xrotation Yrotation Zrotation
									JOINT mixamorig:RightHandThumb2
									{
										OFFSET -6.567429 -3.791718 3.791708
										CHANNELS 3 Xrotation Yrotation Zrotation
										JOINT mixamorig:RightHandThumb3
										{
											OFFSET -6.062469 -3.500153 3.500166
											CHANNELS 3 Xrotation Yrotation Zrotation
											JOINT mixamorig:RightHandThumb4
											{
												OFFSET -4.792618 -2.767029 2.767022
												CHANNELS 3 Xrotation Yrotation Zrotation
												End Site
												{
													OFFSET -0.100327 6.053253 1.276754
												}
											}
										}
									}
								}
								JOINT mixamorig:RightHandIndex1
								{
									OFFSET -23.048981 -0.310791 4.992554
									CHANNELS 3 Xrotation Yrotation Zrotation
									JOINT mixamorig:RightHandIndex2
									{
										OFFSET -6.227539 0.000000 0.000000
										CHANNELS 3 Xrotation Yrotation Zrotation
										JOINT mixamorig:RightHandIndex3
										{
											OFFSET -6.095047 0.000000 0.000000
											CHANNELS 3 Xrotation Yrotation Zrotation
											JOINT mixamorig:RightHandIndex4
											{
												OFFSET -5.484772 0.000000 0.000000
												CHANNELS 3 Xrotation Yrotation Zrotation
												End Site
												{
													OFFSET 1.420593 5.237305 0.797056
												}
											}
										}
									}
								}
								JOINT mixamorig:RightHandRing1
								{
									OFFSET -22.246323 0.020569 -3.963762
									CHANNELS 3 Xrotation Yrotation Zrotation
									JOINT mixamorig:RightHandRing2
									{
										OFFSET -6.322128 0.000000 0.000000
										CHANNELS 3 Xrotation Yrotation Zrotation
										JOINT mixamorig:RightHandRing3
										{
											OFFSET -5.900024 0.000000 0.000000
											CHANNELS 3 Xrotation Yrotation Zrotation
											JOINT mixamorig:RightHandRing4
											{
												OFFSET -6.518356 0.000000 0.000000
												CHANNELS 3 Xrotation Yrotation Zrotation
												End Site
												{
													OFFSET 1.636398 6.232697 0.982186
												}
											}
										}
									}
								}
								JOINT mixamorig:RightHandPinky1
								{
									OFFSET -20.411011 -0.303314 -8.561701
									CHANNELS 3 Xrotation Yrotation Zrotation
									JOINT mixamorig:RightHandPinky2
									{
										OFFSET -6.907349 0.000000 0.000000
										CHANNELS 3 Xrotation Yrotation Zrotation
										JOINT mixamorig:RightHandPinky3
										{
											OFFSET -4.623840 0.000000 0.000000
											CHANNELS 3 Xrotation Yrotation Zrotation
											JOINT mixamorig:RightHandPinky4
											{
												OFFSET -5.218353 0.000000 0.000000
												CHANNELS 3 Xrotation Yrotation Zrotation
												End Site
												{
													OFFSET 0.602097 5.118835 0.816273
												}
											}
										}
									}
								}
							}
						}
					}
				}
			}
		}
	}
	JOINT mixamorig:LeftUpLeg
	{
		OFFSET 18.168400 -13.561905 -0.039000
		CHANNELS 3 Xrotation Yrotation Zrotation
		JOINT mixamorig:LeftLeg
		{
			OFFSET 0.577358 -80.825211 -3.695000
			CHANNELS 3 Xrotation Yrotation Zrotation
			JOINT mixamorig:LeftFoot
			{
				OFFSET -0.577356 -83.370262 -6.520700
				CHANNELS 3 Xrotation Yrotation Zrotation
				JOINT mixamorig:LeftToeBase
				{
					OFFSET 0.750401 -20.798306 25.135401
					CHANNELS 3 Xrotation Yrotation Zrotation
					JOINT mixamorig:LeftToe_End
					{
						OFFSET -0.000500 0.001200 19.917799
						CHANNELS 3 Xrotation Yrotation Zrotation
						End Site
						{
							OFFSET 0.000000 19.917805 0.000000
						}
					}
				}
			}
		}
	}
	JOINT mixamorig:RightUpLeg
	{
		OFFSET -18.162500 -13.585098 -0.041000
		CHANNELS 3 Xrotation Yrotation Zrotation
		JOINT mixamorig:RightLeg
		{
			OFFSET -0.595024 -80.945297 -3.631900
			CHANNELS 3 Xrotation Yrotation Zrotation
			JOINT mixamorig:RightFoot
			{
				OFFSET 0.595024 -83.218193 -6.561200
				CHANNELS 3 Xrotation Yrotation Zrotation
				JOINT mixamorig:RightToeBase
				{
					OFFSET -0.753601 -20.807106 25.115000
					CHANNELS 3 Xrotation Yrotation Zrotation
					JOINT mixamorig:RightToe_End
					{
						OFFSET 0.000299 0.001700 19.918200
						CHANNELS 3 Xrotation Yrotation Zrotation
						End Site
						{
							OFFSET 0.000000 19.918203 0.000000
						}
					}
				}
			}
		}
	}
}
MOTION
Frames: 5
Frame Time: 0.033333
5.224851 199.030365 -1.411469 2.391453 13.921352 -3.428765 1.438255 8.073836 6.634863 -1.418888 3.407463 1.567049 -1.207463 3.702307 1.346160 -2.825464 1.295060 -2.197491 -2.128990 16.865861 -6.611919 -0.000000 -0.000002 -0.000001 -0.000000 -0.000002 -0.000001 -0.000000 -0.000002 -0.000001 3.854762 -4.715607 -1.801711 13.520126 1.222256 -69.166525 -0.000036 -122.812935 -0.000044 -7.293745 -8.218391 8.349198 4.723570 11.262266 -64.153672 4.800687 6.562262 -81.567260 3.012195 5.142334 -60.084259 0.000002 0.000000 -0.000000 30.968952 -5.021638 17.615845 1.284024 32.757615 -3.088966 2.117133 9.311156 -0.358635 0.000002 -0.000001 -0.000001 4.066532 9.239043 -69.193395 4.970686 6.499112 -81.837209 3.713561 5.416927 -71.266125 -0.000001 -0.000001 0.000000 7.118985 11.978629 -71.672235 5.722930 5.495940 -84.730880 3.655180 4.736986 -63.406955 -0.000001 0.000000 0.000001 9.398740 18.206387 -81.986258 5.235989 6.044688 -89.900056 3.612679 5.838150 -64.675778 -0.000001 0.000001 -0.000001 7.155271 -3.164883 -2.225287 -19.171168 -10.103842 67.319048 0.000058 119.069950 -0.000064 31.771369 12.082318 -9.345863 5.951637 -11.325792 79.358458 6.292188 -6.614517 96.603040 4.610967 -5.719300 78.805725 0.000002 0.000004 -0.000001 32.150172 5.068473 -21.890500 1.284063 -32.757604 3.088958 2.008686 -8.430480 1.114701 0.000002 -0.000001 0.000003 5.250816 -9.416157 79.186181 5.966569 -6.554353 91.769705 4.029952 -5.708582 84.790187 0.000001 0.000001 -0.000002 8.348869 -11.421338 86.865717 7.195075 -5.294406 99.697321 3.125637 -4.722422 76.777672 0.000000 -0.000000 -0.000003 11.026306 -18.221287 97.419350 6.743053 -5.977418 104.986940 2.199970 -5.907713 81.085779 -0.000001 0.000001 0.000001 -23.724884 12.836474 5.326357 16.572173 -9.724208 0.167987 4.009993 -6.090572 1.646108 0.288825 0.000002 0.000000 0.000000 -0.000001 0.000000 -12.628097 -3.446756 0.209745 15.708110 -9.378549 4.654659 -5.222059 -11.675602 -1.824085 -1.746129 -0.000007 -0.000001 0.000000 -0.000001 -0.000000 
5.271908 197.618729 -2.418886 1.821459 14.159938 -3.053900 2.342160 8.391534 7.085354 -1.571195 3.474226 1.276425 -1.323497 3.764170 1.026021 -2.908283 1.341176 -2.292721 -2.668565 17.026521 -6.313311 0.000000 0.000002 0.000000 0.000000 0.000002 0.000000 0.000000 0.000002 0.000000 3.086502 -4.919433 -4.992945 14.430421 2.818788 -66.748686 0.000057 -117.911386 0.000058 -7.419686 -14.081047 6.655195 4.723264 11.262104 -64.153631 4.800535 6.562263 -81.565689 3.012222 5.142344 -60.084252 -0.000000 0.000000 -0.000000 30.969041 -5.023389 17.615410 1.284024 32.757625 -3.088967 2.117135 9.311160 -0.358637 -0.000001 0.000001 0.000003 4.067618 9.237545 -69.193532 4.970689 6.499112 -81.837196 3.713547 5.416934 -71.266132 0.000003 0.000000 0.000000 7.117301 11.977981 -71.672119 5.722731 5.495929 -84.728613 3.655168 4.736975 -63.406927 -0.000002 0.000000 -0.000000 9.396807 18.206095 -81.985855 5.235973 6.044710 -89.900022 3.612708 5.838146 -64.675799 0.000000 -0.000000 0.000002 6.549998 -1.862805 -0.522614 -17.837358 -10.021919 65.377956 0.000100 115.669773 -0.000097 33.327409 13.486343 -17.810079 5.952285 -11.325915 79.358561 6.292189 -6.614505 96.603074 4.610957 -5.719306 78.805739 -0.000001 -0.000001 0.000001 32.150011 5.067650 -21.890743 1.284058 -32.757611 3.088960 2.008688 -8.430484 1.114700 -0.000002 -0.000002 -0.000001 5.249405 -9.415912 79.186112 5.966582 -6.554343 91.769739 4.029954 -5.708558 84.790214 0.000002 0.000000 0.000001 8.349525 -11.421415 86.865799 7.195069 -5.294399 99.697314 3.125644 -4.722432 76.777672 -0.000000 -0.000003 0.000001 11.026324 -18.221276 97.419371 6.743063 -5.977398 104.986954 2.199992 -5.907694 81.085772 0.000000 0.000002 0.000003 -25.704599 11.638501 4.625256 21.364212 -10.013490 1.121407 1.987922 -4.807461 1.566595 0.368149 -0.000001 0.000001 0.000000 0.000001 -0.000000 -15.512528 -3.966598 -0.227062 21.888936 -9.663793 4.119679 -7.732290 -10.738606 -0.907627 -2.676845 0.000004 0.000001 -0.000000 -0.000001 -0.000000 
5.203230 195.929474 -3.751785 0.817166 14.572835 -2.564022 3.765595 8.291110 7.521270 -1.566270 3.367317 0.985132 -1.292508 3.639679 0.713586 -2.926890 1.407345 -2.336622 -3.444841 17.638625 -6.123819 -0.000000 -0.000000 0.000000 -0.000000 -0.000000 0.000000 -0.000000 -0.000000 0.000000 2.494926 -5.296253 -7.755558 14.334113 4.091083 -65.069580 0.000065 -112.195768 0.000059 -13.263131 -16.522304 4.346559 4.722976 11.261980 -64.153597 4.800386 6.562219 -81.564118 3.012208 5.142335 -60.084259 0.000001 0.000001 0.000001 30.969153 -5.025359 17.614920 1.284024 32.757625 -3.088963 2.117135 9.311158 -0.358637 0.000001 -0.000001 0.000000 4.068679 9.236056 -69.193682 4.970684 6.499108 -81.837196 3.713552 5.416938 -71.266119 -0.000001 -0.000000 -0.000000 7.115584 11.977333 -71.672030 5.722508 5.495929 -84.726304 3.655177 4.736982 -63.406948 0.000001 -0.000000 -0.000000 9.394905 18.205775 -81.985459 5.235976 6.044691 -89.900043 3.612680 5.838140 -64.675792 -0.000004 0.000000 -0.000002 5.801486 -0.292124 1.231395 -15.946506 -10.329690 63.737331 0.000029 109.541597 -0.000038 33.786494 12.876483 -20.690863 5.953467 -11.326151 79.358663 6.292189 -6.614522 96.603061 4.610967 -5.719298 78.805753 0.000003 -0.000000 0.000001 32.149817 5.066695 -21.890995 1.284054 -32.757608 3.088956 2.008694 -8.430479 1.114701 0.000003 -0.000000 -0.000002 5.247744 -9.415673 79.185989 5.966559 -6.554348 91.769677 4.029970 -5.708580 84.790173 -0.000003 -0.000001 -0.000001 8.350256 -11.421483 86.865861 7.195079 -5.294388 99.697362 3.125639 -4.722421 76.777692 -0.000000 -0.000002 -0.000004 11.026339 -18.221270 97.419364 6.743054 -5.977413 104.986940 2.199970 -5.907716 81.085786 0.000000 0.000000 0.000005 -27.201790 9.617837 3.057265 26.088770 -10.012566 2.902571 0.113991 -2.530545 0.954869 0.364843 0.000003 -0.000001 0.000000 0.000001 -0.000000 -17.757254 -4.741040 -0.801291 27.479053 -9.799999 3.625619 -9.936622 -9.860443 -0.106056 -2.937936 0.000003 -0.000000 0.000000 -0.000001 0.000000 
4.932076 194.193100 -5.057907 -0.062708 14.567414 -2.556596 5.023091 8.082802 7.991270 -1.380179 3.241106 0.924959 -1.096866 3.496945 0.646055 -2.997639 1.440070 -2.279721 -4.599705 18.286655 -6.148161 -0.000000 -0.000001 -0.000000 -0.000000 -0.000001 -0.000000 -0.000000 -0.000001 -0.000000 2.303508 -5.654231 -9.115304 13.515668 4.879393 -64.723173 0.000164 -109.179959 0.000169 -18.255690 -12.477498 2.502669 4.722689 11.261833 -64.153563 4.800244 6.562178 -81.562513 3.012225 5.142334 -60.084273 -0.000000 0.000000 0.000000 30.969304 -5.027399 17.614406 1.284023 32.757618 -3.088966 2.117133 9.311159 -0.358637 -0.000002 -0.000001 0.000002 4.069746 9.234575 -69.193812 4.970688 6.499100 -81.837196 3.713543 5.416923 -71.266132 -0.000002 -0.000001 0.000003 7.113905 11.976707 -71.671934 5.722271 5.495949 -84.723948 3.655174 4.736985 -63.406921 -0.000001 -0.000000 -0.000000 9.393004 18.205487 -81.985042 5.235990 6.044703 -89.900036 3.612699 5.838159 -64.675785 -0.000002 0.000001 0.000001 5.205579 1.090253 2.622930 -14.592718 -11.282077 62.164912 0.000410 104.475994 -0.000425 31.049825 11.740424 -16.066032 5.954666 -11.326377 79.358793 6.292185 -6.614514 96.603033 4.610961 -5.719292 78.805739 0.000001 0.000000 -0.000002 32.149595 5.065409 -21.891298 1.284058 -32.757611 3.088958 2.008689 -8.430485 1.114705 -0.000002 -0.000002 -0.000003 5.245970 -9.415417 79.185866 5.966577 -6.554347 91.769698 4.029947 -5.708585 84.790207 0.000002 0.000004 -0.000001 8.351017 -11.421571 86.865929 7.195071 -5.294395 99.697328 3.125639 -4.722417 76.777665 -0.000001 0.000000 0.000001 11.026332 -18.221254 97.419364 6.743056 -5.977420 104.986961 2.199992 -5.907705 81.085779 0.000000 0.000002 0.000001 -28.894641 7.867512 2.365433 30.531834 -10.006067 4.149103 -1.544362 -0.409993 0.444013 0.314837 0.000001 -0.000000 0.000000 -0.000000 -0.000000 -19.535340 -5.266448 -0.795164 31.846621 -9.973876 3.291425 -11.575437 -8.967400 0.386130 -2.939599 -0.000004 -0.000001 0.000000 -0.000001 0.000000 
4.472600 192.981400 -5.936706 -0.714268 14.109320 -3.116850 5.868332 7.834660 8.322444 -1.183844 3.128525 1.271718 -0.916102 3.388719 0.992477 -3.092999 1.418846 -2.187342 -5.816381 18.470893 -6.226286 -0.000000 0.000002 -0.000000 -0.000000 0.000002 -0.000000 -0.000000 0.000002 -0.000000 2.503838 -5.874868 -8.546632 12.839987 4.561725 -65.716276 0.000044 -109.660156 0.000027 -17.778597 -4.820121 2.891041 4.722377 11.261682 -64.153515 4.800068 6.562167 -81.560880 3.012202 5.142340 -60.084259 -0.000002 -0.000000 0.000000 30.969403 -5.029364 17.613919 1.284015 32.757621 -3.088968 2.117135 9.311161 -0.358633 0.000004 -0.000003 -0.000001 4.070786 9.232985 -69.193969 4.970667 6.499137 -81.837196 3.713552 5.416928 -71.266125 -0.000000 0.000000 -0.000002 7.112279 11.976073 -71.671811 5.722039 5.495950 -84.721550 3.655164 4.736979 -63.406921 -0.000002 -0.000001 0.000001 9.391100 18.205186 -81.984618 5.235990 6.044708 -89.900036 3.612689 5.838144 -64.675778 -0.000001 0.000003 0.000000 4.817918 1.739859 4.024290 -13.824852 -12.913991 59.817130 0.000081 103.647342 -0.000066 26.497692 12.223066 -5.997721 5.955895 -11.326632 79.358943 6.292184 -6.614494 96.602999 4.610965 -5.719306 78.805739 -0.000001 0.000001 0.000002 32.149362 5.064126 -21.891578 1.284056 -32.757608 3.088959 2.008692 -8.430479 1.114699 0.000001 0.000002 -0.000000 5.244121 -9.415189 79.185737 5.966552 -6.554352 91.769705 4.029944 -5.708562 84.790187 -0.000002 0.000000 -0.000001 8.351854 -11.421658 86.865998 7.195082 -5.294400 99.697368 3.125642 -4.722407 76.777678 -0.000001 0.000001 -0.000001 11.026361 -18.221241 97.419336 6.743056 -5.977411 104.986940 2.199987 -5.907721 81.085779 -0.000002 0.000001 0.000001 -30.280203 7.164860 3.159612 33.719664 -10.001465 4.498488 -2.768021 0.320594 0.267514 0.311758 0.000001 -0.000000 -0.000000 0.000001 -0.000000 -20.348356 -5.620193 -0.041291 34.119974 -10.010660 3.141792 -12.373491 -8.122280 0.436651 -2.940828 -0.000002 -0.000000 0.000000 -0.000000 0.000000 
